<?xml version="1.0" standalone="no"?>
<!DOCTYPE svg PUBLIC "-//W3C//DTD SVG 20010904//EN"
 "http://www.w3.org/TR/2001/REC-SVG-20010904/DTD/svg10.dtd">
<svg version="1.0" xmlns="http://www.w3.org/2000/svg"
 width="225.000000pt" height="225.000000pt" viewBox="0 0 225.000000 225.000000"
 preserveAspectRatio="xMidYMid meet">

<g transform="translate(0.000000,225.000000) scale(0.100000,-0.100000)"
fill="#000000" stroke="none">
<path d="M839 2036 c-2 -2 -101 -9 -219 -15 -308 -17 -293 -14 -319 -69 -11
-26 -64 -157 -116 -291 l-95 -244 73 -124 c39 -68 99 -170 132 -226 l60 -102
85 -3 c82 -4 494 14 555 23 30 5 31 8 133 299 61 172 101 300 96 308 -4 7 -70
111 -147 231 l-140 217 -47 0 c-26 0 -49 -2 -51 -4z m113 -53 c15 -25 15 -30
-3 -76 -11 -28 -18 -57 -17 -66 2 -9 12 7 23 34 23 61 24 63 35 45 5 -8 5 -22
-1 -33 -6 -10 -8 -23 -6 -30 3 -7 9 -1 15 13 8 21 11 22 17 8 3 -9 2 -25 -4
-37 -6 -11 -11 -28 -11 -38 1 -13 5 -11 16 10 8 15 16 27 18 27 2 0 32 -43 65
-95 50 -78 59 -99 51 -115 -14 -27 -12 -38 4 -17 24 31 28 0 6 -43 -12 -23
-19 -47 -17 -53 3 -7 13 7 23 30 18 41 34 56 34 31 0 -6 -44 -136 -97 -289
l-98 -277 -105 -7 c-206 -12 -406 -26 -467 -32 -41 -4 -63 -2 -63 5 0 5 31 13
68 17 38 4 75 11 83 16 10 7 2 9 -26 5 -124 -16 -145 -17 -145 -8 0 5 30 14
68 20 l67 10 -74 -1 c-52 -1 -76 2 -78 11 -3 8 10 12 44 13 26 1 59 5 73 10
16 5 -2 6 -51 3 -52 -4 -79 -2 -84 6 -10 16 -4 19 46 30 l44 9 -55 -2 -55 -2
-55 100 c-112 201 -113 202 -106 230 4 14 12 25 19 24 44 -6 147 3 147 12 0 7
-23 9 -75 4 -41 -4 -75 -5 -75 -2 0 24 16 37 49 39 l36 1 -33 4 c-27 4 -32 8
-27 21 3 9 43 113 87 230 l82 212 95 1 c53 1 146 5 206 9 61 3 151 7 200 8 88
2 91 1 107 -25z"/>
<path d="M907 1943 c-30 -72 -137 -424 -136 -451 0 -25 2 -23 19 14 43 97 154
454 144 464 -7 7 -16 -1 -27 -27z"/>
<path d="M650 1900 c-6 -11 -10 -33 -8 -48 2 -21 8 -27 28 -27 32 0 60 46 44
72 -16 27 -51 28 -64 3z"/>
<path d="M406 1894 c-20 -19 -21 -48 -2 -63 32 -26 82 33 56 64 -16 19 -35 19
-54 -1z"/>
<path d="M501 1784 c-25 -32 -26 -47 -5 -68 19 -19 25 -20 47 -3 25 19 31 61
12 81 -22 22 -30 20 -54 -10z"/>
<path d="M984 1736 c-9 -24 15 -56 41 -56 19 0 25 5 25 23 0 13 -5 28 -12 35
-16 16 -47 15 -54 -2z"/>
<path d="M335 1660 c-9 -10 -15 -30 -13 -47 2 -22 8 -28 28 -28 16 0 29 8 37
24 22 44 -20 86 -52 51z"/>
<path d="M606 1658 c-22 -30 -20 -55 4 -68 27 -15 62 21 58 58 -4 36 -40 42
-62 10z"/>
<path d="M927 1623 c-23 -22 18 -81 48 -70 21 9 19 40 -3 60 -20 18 -34 21
-45 10z"/>
<path d="M1062 1584 c4 -33 32 -54 49 -37 18 18 -5 63 -31 63 -17 0 -21 -5
-18 -26z"/>
<path d="M867 1493 c-13 -13 -7 -50 12 -67 23 -21 51 -11 51 19 0 37 -42 69
-63 48z"/>
<path d="M1012 1458 c2 -28 8 -34 31 -36 21 -3 27 1 27 17 0 23 -25 51 -46 51
-11 0 -14 -9 -12 -32z"/>
<path d="M385 1444 c-216 -15 -297 -32 -160 -33 89 -1 432 17 483 25 17 3 32
9 32 14 0 13 -107 11 -355 -6z"/>
<path d="M776 1389 c14 -28 23 -53 21 -55 -3 -3 -33 -9 -68 -14 l-64 -8 71 0
c39 1 76 -2 82 -6 25 -15 10 -25 -40 -29 l-53 -3 57 -2 c76 -3 83 -19 11 -27
-92 -10 -93 -13 -10 -14 76 -1 78 -2 95 -32 67 -122 104 -179 113 -174 5 4 6
13 1 22 -6 10 0 36 15 75 31 75 22 89 -11 17 -18 -38 -27 -48 -31 -37 -4 9 -2
25 4 37 6 11 16 32 21 48 10 27 9 27 -5 8 -9 -11 -18 -30 -22 -42 -6 -26 -18
-30 -26 -9 -8 20 54 134 75 140 22 5 23 39 2 61 -35 35 -69 -4 -44 -50 10 -19
8 -29 -18 -70 -18 -29 -32 -43 -37 -36 -4 7 0 23 9 36 19 28 20 39 5 30 -6 -4
-14 -17 -19 -29 -7 -20 -8 -20 -15 -2 -5 11 0 35 14 65 17 37 18 42 4 25 -10
-12 -22 -29 -28 -38 -8 -14 -19 -1 -63 74 -56 96 -90 125 -46 39z"/>
<path d="M685 1350 c-26 -7 -23 -8 22 -9 28 0 55 4 58 9 7 11 -35 11 -80 0z"/>
<path d="M332 1308 c-30 -30 0 -75 43 -64 34 9 50 40 29 60 -18 19 -55 21 -72
4z"/>
<path d="M522 1229 c-45 -17 -35 -69 14 -69 25 0 57 26 51 43 -7 21 -41 35
-65 26z"/>
<path d="M706 1145 c-20 -20 -20 -39 -2 -55 35 -28 93 11 70 48 -15 23 -48 27
-68 7z"/>
<path d="M523 1073 c9 -2 23 -2 30 0 6 3 -1 5 -18 5 -16 0 -22 -2 -12 -5z"/>
<path d="M563 1043 c15 -2 39 -2 55 0 15 2 2 4 -28 4 -30 0 -43 -2 -27 -4z"/>
<path d="M1274 1295 c-36 -87 -177 -401 -199 -446 -14 -26 -25 -56 -25 -66 0
-18 168 -482 179 -495 3 -4 150 -23 326 -42 249 -27 323 -32 332 -23 10 11 62
120 209 439 30 65 54 125 54 134 0 40 -203 474 -222 474 -7 0 -121 11 -253 24
-132 14 -273 27 -313 31 l-72 7 -16 -37z m392 -21 c212 -20 261 -28 272 -42
12 -15 8 -18 -35 -22 l-48 -6 51 -8 52 -8 62 -131 c35 -73 69 -147 77 -166
l14 -34 -51 5 c-63 6 -56 -4 13 -17 28 -5 53 -16 55 -24 5 -15 -62 -12 -323
15 -203 21 -299 26 -255 14 29 -8 256 -36 528 -66 56 -6 62 -23 9 -25 l-32 -1
30 -9 c21 -6 9 -7 -42 -5 -40 2 -70 -1 -67 -5 3 -5 22 -9 42 -9 83 0 109 -28
29 -32 l-42 -1 38 -4 c47 -5 45 -25 -4 -34 -32 -6 -32 -6 -6 -8 39 -1 29 -24
-14 -32 -30 -6 -31 -7 -6 -8 15 0 27 -4 27 -8 0 -4 -26 -62 -57 -130 -55 -116
-60 -123 -88 -123 -28 -1 -29 -2 -7 -10 34 -14 28 -34 -8 -26 -19 3 -29 2 -25
-4 3 -6 15 -10 26 -10 11 0 17 -4 14 -10 -3 -5 -36 -11 -73 -11 -70 -1 -68 -4
11 -14 31 -4 47 -11 44 -18 -2 -7 -10 -11 -18 -10 -8 2 -122 14 -254 27 -365
38 -354 37 -348 53 4 9 14 13 27 9 63 -15 98 -18 93 -9 -4 6 -27 14 -52 18
-36 5 -45 10 -43 23 4 18 10 19 76 8 25 -4 41 -3 38 3 -3 5 -26 12 -51 15 -46
7 -51 11 -36 35 7 11 18 11 60 2 63 -13 64 -13 56 -1 -3 5 -28 12 -55 16 -53
7 -57 11 -37 38 11 16 17 16 75 2 34 -8 62 -10 62 -6 0 5 -27 14 -60 21 -33 6
-60 14 -60 18 1 23 20 32 56 27 l39 -5 -38 10 c-60 18 -40 34 39 32 48 -1 62
1 44 7 -14 4 -42 8 -62 9 -21 1 -38 4 -38 7 0 21 25 44 48 45 23 2 24 2 5 6
-24 5 -27 11 -17 37 5 13 15 15 43 11 l36 -5 -32 12 c-26 11 -30 16 -22 31 8
14 18 16 51 11 30 -5 39 -4 34 4 -4 7 -20 12 -37 12 -31 0 -32 1 -23 25 5 13
16 15 68 9 71 -8 71 4 -1 14 -46 7 -48 9 -45 36 2 15 0 26 -5 23 -5 -3 -47
-92 -94 -196 -46 -105 -87 -191 -90 -191 -4 0 -9 10 -12 22 -4 12 -9 20 -12
17 -3 -3 0 -20 6 -37 7 -20 7 -37 1 -48 -8 -15 -11 -13 -17 14 -3 18 -11 34
-16 37 -13 9 -11 -7 5 -47 9 -21 11 -39 6 -48 -9 -15 -22 8 -36 66 -6 23 -24
44 -24 28 0 -4 10 -38 22 -76 12 -37 19 -71 15 -74 -4 -4 -8 -5 -10 -3 -2 2
-40 104 -84 226 l-82 221 111 249 c61 136 113 251 117 255 3 4 42 -75 85 -177
79 -188 103 -231 112 -207 4 7 25 12 56 12 64 0 59 7 -12 17 -70 10 -82 35
-13 27 35 -4 44 -3 33 5 -8 6 -31 11 -50 11 l-36 0 -76 165 -76 165 43 0 c23
0 159 -11 301 -26z"/>
<path d="M1530 1225 c-23 -28 6 -95 41 -95 39 0 45 53 11 93 -18 21 -36 22
-52 2z"/>
<path d="M1705 1107 c-12 -47 32 -102 65 -82 13 8 13 61 0 86 -15 28 -58 25
-65 -4z"/>
<path d="M1270 1031 c0 -32 22 -56 45 -47 21 8 19 39 -3 59 -27 25 -42 21 -42
-12z"/>
<path d="M1877 1023 c-4 -3 -7 -21 -7 -38 0 -61 71 -90 78 -32 6 49 -44 98
-71 70z"/>
<path d="M1203 914 c-3 -8 0 -27 6 -40 14 -31 45 -28 49 4 6 41 -41 72 -55 36z"/>
<path d="M1343 884 c-3 -8 0 -27 6 -40 14 -31 45 -28 49 4 6 41 -41 72 -55 36z"/>
<path d="M1137 813 c-11 -11 -8 -48 5 -61 7 -7 20 -12 31 -12 14 0 18 6 15 26
-3 27 -39 60 -51 47z"/>
<path d="M1273 754 c-9 -24 14 -64 37 -64 29 0 31 46 2 68 -21 16 -31 15 -39
-4z"/>
<path d="M1580 710 c-28 -28 -24 -74 7 -78 13 -2 27 5 37 20 22 30 20 55 -4
68 -16 8 -24 6 -40 -10z"/>
<path d="M1847 652 c-32 -36 -13 -91 24 -71 26 13 41 46 34 69 -8 25 -37 26
-58 2z"/>
<path d="M1200 628 c0 -27 28 -58 46 -51 17 6 18 45 2 61 -20 20 -48 14 -48
-10z"/>
<path d="M1690 570 c-30 -30 -24 -75 10 -75 31 0 60 46 44 72 -16 26 -31 26
-54 3z"/>
<path d="M1506 458 c-30 -43 -8 -90 32 -69 34 18 44 74 16 85 -25 10 -32 7
-48 -16z"/>
<path d="M1777 412 c-19 -21 -23 -67 -7 -77 33 -21 86 49 60 80 -17 20 -33 19
-53 -3z"/>
<path d="M1420 312 c8 -5 35 -12 60 -16 28 -4 39 -3 30 3 -8 5 -35 12 -60 15
-29 4 -40 4 -30 -2z"/>
</g>
</svg>
